Patient4_TMGait_0pt6_01_right_42_EMG.mot
version=1
nRows=30
nColumns=33
inDegrees=no
endheader
time	1LAddLong	2LGlutMax	3LGlutMed	4LIliopsoas	5LSemiMemb	6LBicFemLong	7LRecFem	8LVastMed	9LVastLat	10LGasMed	11LTibAnt	12lTibPost	13LPeroneusLong	14LSol	15LExtDigLong	16LFlexDigLong	17RAddLong	18RGlutMax	19RGlutMed	20RIliopsoas	21RSemiMemb	22RBicFemLong	23RRecFem	24RVastMed	25RVastLat	26RGasMed	27RTibAnt	28RTibPost	29RPeroneusLong	30RSol	31RExtDigLong	32RFlexDigLong
51.355	-0.027771	-0.084686	-0.074768	-0.011902	0.049438	0.52322	0.016785	0.005646	0.016174	0.025177	-0.080719	0.005646	-0.029755	-0.1033	0.057983	-0.006104	0.038452	-0.13504	0.005341	-0.024719	0.089874	-0.059357	-0.38742	-0.050049	0.03067	-0.014038	0.32928	0.000153	-2.0677	0.13153	-0.006256	-0.010071
51.356	-0.023804	-0.097961	-0.12116	-0.016479	-0.013428	0.33173	0.045929	0.032196	0.074158	0.054779	-0.043488	-0.000305	-0.01709	-0.076752	0.10071	0.002594	0.0737	-0.10193	0.033875	-0.082855	0.077515	-0.0737	-0.44205	0.010681	0.041656	-0.003052	0.11414	-0.001068	-0.048523	-0.14923	-0.002441	-0.014191
51.357	0.005341	-0.057526	-0.048981	0.002899	-0.00061	0.008087	0.007324	0.032043	0.062408	0.090332	0.003662	-0.001678	0.009308	-0.048218	0.072784	0.00351	0.074158	-0.10208	-0.075073	-0.24094	-0.010071	0.047455	-0.44098	0.041656	0.041962	0.024872	-0.38864	0.001068	-0.057678	-0.44434	0.001373	0.003357
51.358	0.067291	-0.033417	0.090179	0.002899	0.1297	-0.074005	-0.013428	-0.015106	-0.068054	0.067139	0.03891	0.005035	0.003052	0.011292	0.10254	0.00885	0.066071	-0.083771	0.16037	-0.27802	-0.040894	0.33417	-0.37933	0.005798	0.023499	0.022736	-1.3054	-0.002289	0.29724	-0.27634	-0.003052	-0.002441
51.359	0.087433	-0.11719	0.37537	0.005646	0.23117	-0.36194	-0.002594	-0.016937	-0.098419	0.019379	0.025177	-0.007172	-0.016479	0.007477	0.33081	-0.002747	0.065308	-0.066071	0.42541	-0.2179	0.00351	0.35355	-0.36667	0.031128	0.008087	0.009155	-0.46066	0.008087	0.5806	-0.01358	-0.003967	-0.022736
51.36	0.020599	-0.14694	0.39215	0.004883	0.24262	-0.72937	0.032654	-0.020752	0.03418	0.018463	0.002136	0.010834	-0.014801	0.051575	0.21255	0.008698	0.063629	-0.17242	0.17838	-0.016327	0.071869	0.23346	-0.35233	0.006866	0.024567	-0.008392	-0.71045	-0.000763	0.63965	0.020294	-0.002441	-0.023956
51.361	-0.002136	-0.15549	0.28397	0.012817	0.20233	-0.69748	-0.010986	-0.019226	0.22934	0.062561	-0.032196	0.014038	0.015259	0.073395	-0.14725	0.003357	0.036316	-0.23163	0.041809	0.07019	0.088043	0.14313	-0.40405	0.040436	0.021973	-0.007324	-0.35645	0.002136	0.2829	0.080414	0.000153	-0.013733
51.362	0.028687	-0.13657	0.2565	0.016937	0.16296	-0.59952	-0.20325	-0.023651	0.26566	0.12222	-0.008087	0.005646	-0.007935	0.053101	-0.19409	0.010986	0.005188	-0.22598	0.032806	0.028992	0.0914	0.069885	-0.3923	0.03952	0.016327	-0.005341	0.37384	-0.00061	0.52612	0.1413	-0.004578	-0.023651
51.363	0.034485	-0.11536	0.16113	-0.000916	0.10071	-0.027618	-0.19165	0.00412	0.14664	0.11429	0.00351	0.011139	0.11414	0.075989	0.31448	0.021057	0.006866	-0.29709	0.1619	-0.060577	0.14404	0.01297	-0.41092	0.10193	0.021973	-0.002441	-0.10696	-0.002747	0.8168	0.12695	-0.001831	-0.018311
51.364	0.023651	-0.1207	0.062256	0.011597	0.1004	0.12589	-0.12177	0.011749	0.19562	0.18402	-0.000916	0.004578	0.3038	0.10132	0.1152	0.018311	0.007782	-0.21088	0.20096	-0.073547	0.17761	-0.07782	-0.39414	0.13168	0.022583	0.016632	-0.50552	-0.000153	0.76584	0.1059	-0.000916	-0.001831
51.365	0.002441	-0.093689	-0.08728	-0.005646	0.13321	0.41138	-0.052032	0.040741	0.1088	0.25406	-0.003662	0.007935	0.50079	0.1004	-0.058289	0.020752	0.037537	-0.13458	0.2417	-0.22354	0.12604	-0.080872	-0.43854	0.11139	0.037842	0.010223	0.020752	-0.002594	0.35233	0.23697	-0.006256	-0.016785
51.366	-0.003357	-0.11917	-0.20401	-0.002594	0.048981	0.73013	-0.16403	0.057678	0.10696	0.18875	-0.027466	0.009003	0.52506	0.080261	-0.085297	0.014954	0.027618	-0.12283	0.28366	-0.21973	0.11002	-0.086517	-0.39764	0.18906	0.009766	-0.010071	0.19241	-0.002899	0.072021	0.46036	-0.005493	-0.016022
51.367	-0.001068	-0.28137	-0.34958	-0.005798	0.002441	0.62393	-0.14389	0.02533	0.030518	0.037384	-0.067139	0.001526	0.55008	0.11688	-0.060883	0.025635	0.01297	-0.082092	-0.044556	-0.18494	0.084534	-0.07309	-0.39154	0.18845	0.00351	-0.010529	-0.18204	0.003815	1.0962	0.43579	-0.002594	-0.016174
51.368	-0.012817	-0.44052	-0.45013	-0.003815	-0.015259	0.5069	0.16495	0.010071	-0.11673	-0.041199	-0.09201	0.016632	0.43579	0.18692	-0.028992	0.030823	-0.007477	-0.085297	-0.38864	-0.086365	0.020752	-0.13916	-0.37857	0.16266	-0.013428	-0.00473	-0.61493	-0.007019	-0.002594	0.23407	0.000458	-0.003052
51.369	-0.022125	-0.63782	-0.42511	-0.001373	-0.098114	0.26321	0.30014	-0.012665	0.007172	-0.15442	-0.16876	0.015259	-0.41611	0.2095	-0.037384	0.050964	-0.049438	-0.12543	-0.18112	-0.048218	-0.043335	-0.1619	-0.37445	0.13229	-0.00351	-0.014954	-0.68253	-0.002747	-0.29633	0.23361	0.000153	-0.014496
51.37	-0.020142	-0.65933	-0.36301	0.015106	-0.12085	-0.17029	0.3035	-0.009613	0.32028	-0.23254	-0.15549	0.015106	-1.3019	0.24155	-0.19302	0.047302	-0.095825	-0.014954	-0.060883	0.013428	-0.073853	-0.1712	-0.30579	0.066528	-0.033875	-0.020142	-0.19333	-0.005035	-0.43869	0.23315	-0.005646	-0.010071
51.371	-0.019226	-0.64514	-0.37827	0.012512	-0.018768	-0.55161	0.22171	0.03479	0.33035	-0.16678	-0.007782	0.017242	-1.1639	0.18723	-0.012512	0.055695	-0.087128	0.02182	0.015106	0.013733	-0.099182	-0.22263	-0.33646	0.082703	-0.036011	-0.018616	0.046234	-0.003052	-0.61874	0.27863	0.004272	-0.018616
51.372	-0.014343	-0.72464	-0.36392	0.001526	-0.082245	-0.72052	0.22171	0.051575	0.21561	-0.099792	0.25787	0.003815	0.12711	0.096436	-0.014801	0.050659	-0.090942	-0.1059	-0.026093	0.098877	-0.09079	-0.17227	-0.35751	0.048065	-0.026855	-0.017395	0.091248	-0.009613	-0.94193	0.42923	0.001068	-0.013885
51.373	0.002136	-0.64194	-0.33798	0.000305	-0.00473	-0.61203	0.25894	0.033417	-0.054626	0.077972	0.29312	0.01236	0.29266	-0.037079	0.14603	0.03952	-0.056915	-0.036926	0.10208	0.037079	-0.086365	-0.028992	-0.33707	0.060272	-0.025024	-0.019836	0.10269	-0.003815	-0.16678	0.44632	0.000763	-0.010681
51.374	-0.003815	-0.54855	-0.26611	-0.003357	0.050812	-0.69565	0.30609	0.020599	-0.24323	0.24536	0.24582	0.01297	0.1358	0.021973	-0.16403	0.014343	-0.036774	-0.10742	0.12024	0.039368	-0.000458	0.093079	-0.38361	0.030975	-0.026855	-0.014343	0.030518	-0.003204	1.2177	0.3656	-0.003052	-0.014496
51.375	-0.011749	-0.4808	-0.19409	0.013885	0.020294	-0.54718	0.37796	-0.002899	-0.27863	0.32577	-0.10559	0.021362	-0.11765	0.099792	-0.05188	-1.5208	-0.0354	-0.12589	0.041504	0.10284	0.068817	0.10178	-0.35507	0.046387	-0.0383	-0.019989	0.13214	-0.000916	1.283	0.31281	0.002747	-0.0177
51.376	-0.001068	-0.41199	-0.10178	0.014648	0.022125	-0.20142	0.26306	-0.005035	-0.30853	0.31921	-0.10544	0.03952	-0.081635	-0.028534	-0.083923	0.19592	-0.002747	-0.16815	-0.15228	0.08255	0.050354	0.085144	-0.35858	0.02533	-0.047607	-0.025787	0.55389	-0.005341	0.73349	0.29739	0.006104	-0.017395
51.377	0.010834	-0.38803	0.079651	0.010681	0.014954	-0.168	0.012054	0.011292	-0.18768	0.11246	-0.000458	0.027771	-0.034485	-0.11917	0.069122	0.75241	0.037689	-0.24719	-0.071869	0.112	0.024719	0.079346	-0.28671	0.001984	-0.04837	-0.023193	0.43701	-0.000916	0.12161	0.15488	0.001068	-0.019073
51.378	-0.001526	-0.33905	0.13626	0.022736	0.00885	0.036469	-0.15747	0.032959	-0.038605	0.041199	0.021667	0.03006	-0.059204	-0.044098	-0.15228	-0.059357	0.030365	-0.22369	0.18799	0.12695	0.015106	0.070801	-0.29511	0.064545	-0.046539	-0.014038	0.32776	-0.002441	0.14801	-0.025024	0.01297	-0.02182
51.379	-0.002289	-0.28519	0.049591	-0.005646	-0.010223	0.15656	-0.016327	0.029449	-0.036469	-0.121	-0.12009	0.046539	0.15411	0.005646	0.091553	-0.15137	0.045776	-0.19073	0.084991	0.062714	0.012207	0.053711	-0.3096	0.10208	-0.03891	-0.005188	0.14374	-0.002899	-0.038757	-0.15915	0.006714	-0.018311
51.38	-0.001221	-0.17303	0.02594	-0.015259	-0.009308	0.12665	0.10178	0.001831	0.027313	-0.23773	0.037079	0.023041	0.061646	0.10529	0.37506	0.47806	0.079346	-0.22247	-0.035248	0.077515	0.010223	0.062103	-0.35278	0.038147	-0.040131	-0.011444	0.38422	-0.004883	-0.49042	-0.19699	0.007019	-0.018311
51.381	0.015869	-0.022736	0.018005	-0.002289	0.032501	0.20325	-0.056	-0.010681	0.10773	-0.3244	0.060272	0.027771	0.068817	0.20233	0.33707	0.14374	0.070343	-0.26062	-0.042877	0.075073	0.031433	0.050201	-0.26825	0.032654	-0.059357	0.003357	0.25314	-0.001678	0.19241	-0.25604	0.000458	-0.020447
51.382	0.010681	0.06546	0.17471	0.009918	0.030212	0.41824	-0.23651	-0.02243	0.16495	-0.30258	0.10223	0.023651	0.067291	0.21072	-0.12741	-0.00351	0.060883	-0.25925	-0.042877	0.15427	0.076752	0.030518	-0.23163	0.026093	-0.06134	0.017395	-0.58823	-0.00351	-0.035095	-0.32638	0.005188	-0.016937
51.383	0.009308	0.088501	0.24689	-0.005493	0.014648	0.62927	-0.1471	-0.009003	0.15625	-0.3067	0.25894	0.014343	0.10864	0.15717	-0.19867	0.011292	0.023499	-0.3627	-0.059052	0.13657	0.089111	0.062561	-0.24109	0.006866	-0.030823	0.004272	0.1683	-0.004578	-0.82291	-0.16937	0.007172	-0.022736
51.384	-0.018768	0.15701	0.18753	0.014801	-0.042419	0.75165	-0.04364	-0.003204	0.11246	-0.21652	0.098877	0.007477	-0.034943	0.23407	-0.15411	-0.00946	-0.041809	-0.39078	-0.015259	-0.072327	0.036926	-0.029755	-0.24841	0.037384	-0.029144	-0.00885	-0.42862	-0.00412	-0.79819	0.011749	0.005035	-0.021667
